<svg width="37" height="37" viewBox="0 0 37 37" fill="none" xmlns="http://www.w3.org/2000/svg">
<path fill-rule="evenodd" clip-rule="evenodd" d="M12.7188 8.09375C12.7188 6.56047 13.3278 5.08998 14.412 4.00579C15.4962 2.92159 16.9667 2.3125 18.5 2.3125C20.0333 2.3125 21.5038 2.92159 22.588 4.00579C23.6722 5.08998 24.2812 6.56047 24.2812 8.09375V9.25H12.7188V8.09375ZM26.5938 8.09375V9.25H34.6875V32.375C34.6875 33.6016 34.2002 34.778 33.3329 35.6454C32.4655 36.5127 31.2891 37 30.0625 37H6.9375C5.71087 37 4.53449 36.5127 3.66713 35.6454C2.79978 34.778 2.3125 33.6016 2.3125 32.375V9.25H10.4062V8.09375C10.4062 5.94715 11.259 3.88848 12.7769 2.3706C14.2947 0.852732 16.3534 0 18.5 0C20.6466 0 22.7053 0.852732 24.2231 2.3706C25.741 3.88848 26.5938 5.94715 26.5938 8.09375ZM25.0999 20.4749C25.317 20.2578 25.439 19.9633 25.439 19.6562C25.439 19.3492 25.317 19.0547 25.0999 18.8376C24.8828 18.6205 24.5883 18.4985 24.2812 18.4985C23.9742 18.4985 23.6797 18.6205 23.4626 18.8376L17.3438 24.9588L14.6936 22.3064C14.5861 22.1989 14.4585 22.1136 14.318 22.0554C14.1776 21.9972 14.027 21.9673 13.875 21.9673C13.723 21.9673 13.5724 21.9972 13.432 22.0554C13.2915 22.1136 13.1639 22.1989 13.0564 22.3064C12.9489 22.4139 12.8636 22.5415 12.8054 22.682C12.7472 22.8224 12.7173 22.973 12.7173 23.125C12.7173 23.277 12.7472 23.4276 12.8054 23.568C12.8636 23.7085 12.9489 23.8361 13.0564 23.9436L16.5251 27.4124C16.6325 27.5201 16.7601 27.6055 16.9006 27.6638C17.0411 27.7221 17.1917 27.7521 17.3438 27.7521C17.4958 27.7521 17.6464 27.7221 17.7869 27.6638C17.9274 27.6055 18.055 27.5201 18.1624 27.4124L25.0999 20.4749Z" fill="black"/>
<path fill-rule="evenodd" clip-rule="evenodd" d="M12.7188 8.09375C12.7188 6.56047 13.3278 5.08998 14.412 4.00579C15.4962 2.92159 16.9667 2.3125 18.5 2.3125C20.0333 2.3125 21.5038 2.92159 22.588 4.00579C23.6722 5.08998 24.2812 6.56047 24.2812 8.09375V9.25H12.7188V8.09375ZM26.5938 8.09375V9.25H34.6875V32.375C34.6875 33.6016 34.2002 34.778 33.3329 35.6454C32.4655 36.5127 31.2891 37 30.0625 37H6.9375C5.71087 37 4.53449 36.5127 3.66713 35.6454C2.79978 34.778 2.3125 33.6016 2.3125 32.375V9.25H10.4062V8.09375C10.4062 5.94715 11.259 3.88848 12.7769 2.3706C14.2947 0.852732 16.3534 0 18.5 0C20.6466 0 22.7053 0.852732 24.2231 2.3706C25.741 3.88848 26.5938 5.94715 26.5938 8.09375ZM25.0999 20.4749C25.317 20.2578 25.439 19.9633 25.439 19.6562C25.439 19.3492 25.317 19.0547 25.0999 18.8376C24.8828 18.6205 24.5883 18.4985 24.2812 18.4985C23.9742 18.4985 23.6797 18.6205 23.4626 18.8376L17.3438 24.9588L14.6936 22.3064C14.5861 22.1989 14.4585 22.1136 14.318 22.0554C14.1776 21.9972 14.027 21.9673 13.875 21.9673C13.723 21.9673 13.5724 21.9972 13.432 22.0554C13.2915 22.1136 13.1639 22.1989 13.0564 22.3064C12.9489 22.4139 12.8636 22.5415 12.8054 22.682C12.7472 22.8224 12.7173 22.973 12.7173 23.125C12.7173 23.277 12.7472 23.4276 12.8054 23.568C12.8636 23.7085 12.9489 23.8361 13.0564 23.9436L16.5251 27.4124C16.6325 27.5201 16.7601 27.6055 16.9006 27.6638C17.0411 27.7221 17.1917 27.7521 17.3438 27.7521C17.4958 27.7521 17.6464 27.7221 17.7869 27.6638C17.9274 27.6055 18.055 27.5201 18.1624 27.4124L25.0999 20.4749Z" fill="url(#paint0_linear_58_406)"/>
<defs>
<linearGradient id="paint0_linear_58_406" x1="2.3125" y1="7.49999" x2="34.9055" y2="7.97275" gradientUnits="userSpaceOnUse">
<stop stop-color="#7000FF"/>
<stop offset="1" stop-color="#FF0093"/>
</linearGradient>
</defs>
</svg>
