<svg width="37" height="37" viewBox="0 0 37 37" fill="none" xmlns="http://www.w3.org/2000/svg">
<path fill-rule="evenodd" clip-rule="evenodd" d="M0 9.25C0 8.02337 0.487275 6.84699 1.35463 5.97963C2.22199 5.11228 3.39837 4.625 4.625 4.625H32.375C33.6016 4.625 34.778 5.11228 35.6454 5.97963C36.5127 6.84699 37 8.02337 37 9.25V20.8125H0V9.25ZM26.5938 11.5625C26.2871 11.5625 25.993 11.6843 25.7762 11.9012C25.5593 12.118 25.4375 12.4121 25.4375 12.7188V15.0312C25.4375 15.3379 25.5593 15.632 25.7762 15.8488C25.993 16.0657 26.2871 16.1875 26.5938 16.1875H31.2188C31.5254 16.1875 31.8195 16.0657 32.0363 15.8488C32.2532 15.632 32.375 15.3379 32.375 15.0312V12.7188C32.375 12.4121 32.2532 12.118 32.0363 11.9012C31.8195 11.6843 31.5254 11.5625 31.2188 11.5625H26.5938Z" fill="black"/>
<path fill-rule="evenodd" clip-rule="evenodd" d="M0 9.25C0 8.02337 0.487275 6.84699 1.35463 5.97963C2.22199 5.11228 3.39837 4.625 4.625 4.625H32.375C33.6016 4.625 34.778 5.11228 35.6454 5.97963C36.5127 6.84699 37 8.02337 37 9.25V20.8125H0V9.25ZM26.5938 11.5625C26.2871 11.5625 25.993 11.6843 25.7762 11.9012C25.5593 12.118 25.4375 12.4121 25.4375 12.7188V15.0312C25.4375 15.3379 25.5593 15.632 25.7762 15.8488C25.993 16.0657 26.2871 16.1875 26.5938 16.1875H31.2188C31.5254 16.1875 31.8195 16.0657 32.0363 15.8488C32.2532 15.632 32.375 15.3379 32.375 15.0312V12.7188C32.375 12.4121 32.2532 12.118 32.0363 11.9012C31.8195 11.6843 31.5254 11.5625 31.2188 11.5625H26.5938Z" fill="url(#paint0_linear_58_413)"/>
<path d="M0 25.4375V27.75C0 28.9766 0.487275 30.153 1.35463 31.0204C2.22199 31.8877 3.39837 32.375 4.625 32.375H32.375C33.6016 32.375 34.778 31.8877 35.6454 31.0204C36.5127 30.153 37 28.9766 37 27.75V25.4375H0Z" fill="black"/>
<path d="M0 25.4375V27.75C0 28.9766 0.487275 30.153 1.35463 31.0204C2.22199 31.8877 3.39837 32.375 4.625 32.375H32.375C33.6016 32.375 34.778 31.8877 35.6454 31.0204C36.5127 30.153 37 28.9766 37 27.75V25.4375H0Z" fill="url(#paint1_linear_58_413)"/>
<defs>
<linearGradient id="paint0_linear_58_413" x1="2.81058e-07" y1="7.90625" x2="37.2035" y2="9.3159" gradientUnits="userSpaceOnUse">
<stop stop-color="#7000FF"/>
<stop offset="1" stop-color="#FF0093"/>
</linearGradient>
<linearGradient id="paint1_linear_58_413" x1="2.81058e-07" y1="26.8437" x2="36.968" y2="30.1121" gradientUnits="userSpaceOnUse">
<stop stop-color="#7000FF"/>
<stop offset="1" stop-color="#FF0093"/>
</linearGradient>
</defs>
</svg>
