<svg width="37" height="37" viewBox="0 0 37 37" fill="none" xmlns="http://www.w3.org/2000/svg">
<g clip-path="url(#clip0_58_408)">
<path fill-rule="evenodd" clip-rule="evenodd" d="M1.15625 0C1.46291 0 1.757 0.121819 1.97384 0.338658C2.19068 0.555497 2.3125 0.849593 2.3125 1.15625V35.8438C2.3125 36.1504 2.19068 36.4445 1.97384 36.6613C1.757 36.8782 1.46291 37 1.15625 37C0.849593 37 0.555497 36.8782 0.338658 36.6613C0.121819 36.4445 0 36.1504 0 35.8438V1.15625C0 0.849593 0.121819 0.555497 0.338658 0.338658C0.555497 0.121819 0.849593 0 1.15625 0V0Z" fill="black"/>
<path fill-rule="evenodd" clip-rule="evenodd" d="M1.15625 0C1.46291 0 1.757 0.121819 1.97384 0.338658C2.19068 0.555497 2.3125 0.849593 2.3125 1.15625V35.8438C2.3125 36.1504 2.19068 36.4445 1.97384 36.6613C1.757 36.8782 1.46291 37 1.15625 37C0.849593 37 0.555497 36.8782 0.338658 36.6613C0.121819 36.4445 0 36.1504 0 35.8438V1.15625C0 0.849593 0.121819 0.555497 0.338658 0.338658C0.555497 0.121819 0.849593 0 1.15625 0V0Z" fill="url(#paint0_linear_58_408)"/>
<path d="M15.0312 2.3125H5.78125C5.14267 2.3125 4.625 2.83017 4.625 3.46875V5.78125C4.625 6.41983 5.14267 6.9375 5.78125 6.9375H15.0312C15.6698 6.9375 16.1875 6.41983 16.1875 5.78125V3.46875C16.1875 2.83017 15.6698 2.3125 15.0312 2.3125Z" fill="black"/>
<path d="M15.0312 2.3125H5.78125C5.14267 2.3125 4.625 2.83017 4.625 3.46875V5.78125C4.625 6.41983 5.14267 6.9375 5.78125 6.9375H15.0312C15.6698 6.9375 16.1875 6.41983 16.1875 5.78125V3.46875C16.1875 2.83017 15.6698 2.3125 15.0312 2.3125Z" fill="url(#paint1_linear_58_408)"/>
<path d="M26.5938 11.5625H10.4062C9.76767 11.5625 9.25 12.0802 9.25 12.7188V15.0312C9.25 15.6698 9.76767 16.1875 10.4062 16.1875H26.5938C27.2323 16.1875 27.75 15.6698 27.75 15.0312V12.7188C27.75 12.0802 27.2323 11.5625 26.5938 11.5625Z" fill="black"/>
<path d="M26.5938 11.5625H10.4062C9.76767 11.5625 9.25 12.0802 9.25 12.7188V15.0312C9.25 15.6698 9.76767 16.1875 10.4062 16.1875H26.5938C27.2323 16.1875 27.75 15.6698 27.75 15.0312V12.7188C27.75 12.0802 27.2323 11.5625 26.5938 11.5625Z" fill="url(#paint2_linear_58_408)"/>
<path d="M13.875 21.9688C13.875 21.6621 13.9968 21.368 14.2137 21.1512C14.4305 20.9343 14.7246 20.8125 15.0312 20.8125H28.9062C29.2129 20.8125 29.507 20.9343 29.7238 21.1512C29.9407 21.368 30.0625 21.6621 30.0625 21.9688V24.2812C30.0625 24.5879 29.9407 24.882 29.7238 25.0988C29.507 25.3157 29.2129 25.4375 28.9062 25.4375H15.0312C14.7246 25.4375 14.4305 25.3157 14.2137 25.0988C13.9968 24.882 13.875 24.5879 13.875 24.2812V21.9688ZM18.5 31.2188C18.5 30.9121 18.6218 30.618 18.8387 30.4012C19.0555 30.1843 19.3496 30.0625 19.6562 30.0625H35.8438C36.1504 30.0625 36.4445 30.1843 36.6613 30.4012C36.8782 30.618 37 30.9121 37 31.2188V33.5312C37 33.8379 36.8782 34.132 36.6613 34.3488C36.4445 34.5657 36.1504 34.6875 35.8438 34.6875H19.6562C19.3496 34.6875 19.0555 34.5657 18.8387 34.3488C18.6218 34.132 18.5 33.8379 18.5 33.5312V31.2188Z" fill="black"/>
<path d="M13.875 21.9688C13.875 21.6621 13.9968 21.368 14.2137 21.1512C14.4305 20.9343 14.7246 20.8125 15.0312 20.8125H28.9062C29.2129 20.8125 29.507 20.9343 29.7238 21.1512C29.9407 21.368 30.0625 21.6621 30.0625 21.9688V24.2812C30.0625 24.5879 29.9407 24.882 29.7238 25.0988C29.507 25.3157 29.2129 25.4375 28.9062 25.4375H15.0312C14.7246 25.4375 14.4305 25.3157 14.2137 25.0988C13.9968 24.882 13.875 24.5879 13.875 24.2812V21.9688ZM18.5 31.2188C18.5 30.9121 18.6218 30.618 18.8387 30.4012C19.0555 30.1843 19.3496 30.0625 19.6562 30.0625H35.8438C36.1504 30.0625 36.4445 30.1843 36.6613 30.4012C36.8782 30.618 37 30.9121 37 31.2188V33.5312C37 33.8379 36.8782 34.132 36.6613 34.3488C36.4445 34.5657 36.1504 34.6875 35.8438 34.6875H19.6562C19.3496 34.6875 19.0555 34.5657 18.8387 34.3488C18.6218 34.132 18.5 33.8379 18.5 33.5312V31.2188Z" fill="url(#paint3_linear_58_408)"/>
</g>
<defs>
<linearGradient id="paint0_linear_58_408" x1="1.75661e-08" y1="7.49999" x2="2.32856" y2="7.50241" gradientUnits="userSpaceOnUse">
<stop stop-color="#7000FF"/>
<stop offset="1" stop-color="#FF0093"/>
</linearGradient>
<linearGradient id="paint1_linear_58_408" x1="4.625" y1="3.25" x2="16.2478" y2="3.73168" gradientUnits="userSpaceOnUse">
<stop stop-color="#7000FF"/>
<stop offset="1" stop-color="#FF0093"/>
</linearGradient>
<linearGradient id="paint2_linear_58_408" x1="9.25" y1="12.5" x2="27.7969" y2="13.7298" gradientUnits="userSpaceOnUse">
<stop stop-color="#7000FF"/>
<stop offset="1" stop-color="#FF0093"/>
</linearGradient>
<linearGradient id="paint3_linear_58_408" x1="13.875" y1="23.625" x2="37.1428" y2="24.2679" gradientUnits="userSpaceOnUse">
<stop stop-color="#7000FF"/>
<stop offset="1" stop-color="#FF0093"/>
</linearGradient>
<clipPath id="clip0_58_408">
<rect width="37" height="37" fill="white"/>
</clipPath>
</defs>
</svg>
