<svg width="15" height="29" viewBox="0 0 15 29" fill="none" xmlns="http://www.w3.org/2000/svg">
<path fill-rule="evenodd" clip-rule="evenodd" d="M1.45556 12.2816C1.51126 12.0672 1.60866 11.9042 1.72641 11.8285C1.84415 11.7527 1.97264 11.7703 2.08368 11.8774L7.49962 17.1101L12.9146 11.8756C12.9697 11.8212 13.0298 11.7884 13.0915 11.7791C13.1532 11.7698 13.2152 11.7842 13.274 11.8215C13.3328 11.8588 13.3871 11.9182 13.434 11.9963C13.4808 12.0744 13.5192 12.1697 13.5469 12.2766C13.5747 12.3835 13.5912 12.5 13.5955 12.6193C13.5998 12.7386 13.5919 12.8584 13.5721 12.9718C13.5524 13.0851 13.5212 13.1898 13.4805 13.2798C13.4397 13.3697 13.3901 13.4432 13.3346 13.496L7.70962 18.9335C7.64444 18.9966 7.57253 19.0295 7.49962 19.0295C7.42671 19.0295 7.35481 18.9966 7.28962 18.9335L1.66462 13.496C1.55373 13.3883 1.46944 13.2 1.43025 12.9723C1.39106 12.7447 1.40016 12.4963 1.45556 12.2816Z" fill="black"/>
</svg>
