<svg width="21" height="21" viewBox="0 0 21 21" fill="none" xmlns="http://www.w3.org/2000/svg">
<g clip-path="url(#clip0_9_33)">
<path d="M13.5625 12.25H12.8713L12.6263 12.0138C13.4838 11.0162 14 9.72125 14 8.3125C14 5.17125 11.4537 2.625 8.3125 2.625C5.17125 2.625 2.625 5.17125 2.625 8.3125C2.625 11.4537 5.17125 14 8.3125 14C9.72125 14 11.0162 13.4838 12.0138 12.6263L12.25 12.8713V13.5625L16.625 17.9288L17.9288 16.625L13.5625 12.25ZM8.3125 12.25C6.13375 12.25 4.375 10.4913 4.375 8.3125C4.375 6.13375 6.13375 4.375 8.3125 4.375C10.4913 4.375 12.25 6.13375 12.25 8.3125C12.25 10.4913 10.4913 12.25 8.3125 12.25Z" fill="black"/>
</g>
<defs>
<clipPath id="clip0_9_33">
<rect width="21" height="21" fill="white"/>
</clipPath>
</defs>
</svg>
