<svg width="18" height="18" viewBox="0 0 18 18" fill="none" xmlns="http://www.w3.org/2000/svg">
<g clip-path="url(#clip0_9_198)">
<path fill-rule="evenodd" clip-rule="evenodd" d="M17.2411 9.15512C17.2411 11.4049 16.3775 13.5625 14.8404 15.1533C13.3033 16.7442 11.2185 17.6379 9.04463 17.6379C6.87081 17.6379 4.78601 16.7442 3.24888 15.1533C1.71176 13.5625 0.848206 11.4049 0.848206 9.15512C0.848206 6.90535 1.71176 4.74773 3.24888 3.15691C4.78601 1.56608 6.87081 0.672363 9.04463 0.672363C11.2185 0.672363 13.3033 1.56608 14.8404 3.15691C16.3775 4.74773 17.2411 6.90535 17.2411 9.15512ZM12.481 6.34945C12.5772 6.2499 12.6312 6.11488 12.6312 5.97409C12.6312 5.8333 12.5772 5.69828 12.481 5.59873C12.3848 5.49917 12.2543 5.44324 12.1183 5.44324C11.9823 5.44324 11.8518 5.49917 11.7556 5.59873L5.60828 11.9608C5.56065 12.0101 5.52287 12.0686 5.49709 12.133C5.47132 12.1974 5.45805 12.2664 5.45805 12.3362C5.45805 12.4059 5.47132 12.4749 5.49709 12.5393C5.52287 12.6037 5.56065 12.6622 5.60828 12.7115C5.70447 12.8111 5.83494 12.867 5.97097 12.867C6.03833 12.867 6.10503 12.8533 6.16726 12.8266C6.22949 12.7999 6.28604 12.7608 6.33367 12.7115L12.481 6.34945Z" fill="black"/>
</g>
<defs>
<clipPath id="clip0_9_198">
<rect width="16.3929" height="16.9655" fill="white" transform="translate(0.848206 0.672363)"/>
</clipPath>
</defs>
</svg>
